<svg width="25" height="25" viewBox="0 0 25 25" fill="none" xmlns="http://www.w3.org/2000/svg">
<path d="M18.5 7.5H16.5V4.75C16.4987 4.52444 16.4212 4.30594 16.28 4.13L15.28 2.88C15.1869 2.76215 15.0684 2.66679 14.9334 2.601C14.7983 2.53521 14.6502 2.50069 14.5 2.5H10.5C10.3498 2.50069 10.2017 2.53521 10.0666 2.601C9.93161 2.66679 9.81313 2.76215 9.72 2.88L8.72 4.13C8.57884 4.30594 8.50131 4.52444 8.5 4.75V7.5H6.5C5.96957 7.5 5.46086 7.71071 5.08579 8.08579C4.71071 8.46086 4.5 8.96957 4.5 9.5V20.5C4.5 21.0304 4.71071 21.5391 5.08579 21.9142C5.46086 22.2893 5.96957 22.5 6.5 22.5H18.5C19.0304 22.5 19.5391 22.2893 19.9142 21.9142C20.2893 21.5391 20.5 21.0304 20.5 20.5V9.5C20.5 8.96957 20.2893 8.46086 19.9142 8.08579C19.5391 7.71071 19.0304 7.5 18.5 7.5ZM10.5 5.1L10.98 4.5H13.98L14.46 5.1V7.5H10.5V5.1ZM6.5 20.5V9.5H18.5V20.5H6.5Z" fill="#AAAAAA"/>
</svg>
