<svg width="25" height="25" viewBox="0 0 25 25" fill="none" xmlns="http://www.w3.org/2000/svg">
<path d="M12.5 2.5C10.5222 2.5 8.58879 3.08649 6.9443 4.1853C5.29981 5.28412 4.01809 6.8459 3.26121 8.67317C2.50433 10.5004 2.3063 12.5111 2.69215 14.4509C3.078 16.3907 4.03041 18.1725 5.42894 19.5711C6.82746 20.9696 8.60929 21.922 10.5491 22.3079C12.4889 22.6937 14.4996 22.4957 16.3268 21.7388C18.1541 20.9819 19.7159 19.7002 20.8147 18.0557C21.9135 16.4112 22.5 14.4778 22.5 12.5C22.5 11.1868 22.2413 9.88642 21.7388 8.67317C21.2363 7.45991 20.4997 6.35752 19.5711 5.42893C18.6425 4.50035 17.5401 3.76375 16.3268 3.2612C15.1136 2.75866 13.8132 2.5 12.5 2.5ZM12.5 4.5C13.9891 4.50182 15.4482 4.91924 16.713 5.70526C17.9777 6.49128 18.998 7.61471 19.659 8.94911C20.3199 10.2835 20.5953 11.7759 20.4542 13.2583C20.313 14.7407 19.7609 16.1543 18.86 17.34C16.9728 16.102 14.7567 15.4609 12.5 15.5C10.2434 15.4609 8.02719 16.102 6.14 17.34C5.23908 16.1543 4.68698 14.7407 4.54583 13.2583C4.40467 11.7759 4.68007 10.2835 5.34104 8.94911C6.002 7.61471 7.02228 6.49128 8.28706 5.70526C9.55183 4.91924 11.0109 4.50182 12.5 4.5ZM7.57 18.79C9.06341 17.9147 10.7693 17.4684 12.5 17.5C14.2307 17.4684 15.9366 17.9147 17.43 18.79C16.0226 19.8913 14.287 20.4896 12.5 20.4896C10.713 20.4896 8.97739 19.8913 7.57 18.79Z" fill="#AAAAAA"/>
<path d="M12.5 14.5C13.2911 14.5 14.0645 14.2654 14.7223 13.8259C15.3801 13.3864 15.8928 12.7616 16.1955 12.0307C16.4983 11.2998 16.5775 10.4956 16.4231 9.71964C16.2688 8.94371 15.8878 8.23098 15.3284 7.67157C14.769 7.11216 14.0563 6.7312 13.2804 6.57686C12.5044 6.42252 11.7002 6.50173 10.9693 6.80448C10.2384 7.10723 9.61365 7.61992 9.17413 8.27772C8.7346 8.93552 8.5 9.70887 8.5 10.5C8.5 11.5609 8.92143 12.5783 9.67158 13.3284C10.4217 14.0786 11.4391 14.5 12.5 14.5ZM12.5 8.5C12.8956 8.5 13.2822 8.6173 13.6111 8.83706C13.94 9.05682 14.1964 9.36918 14.3478 9.73463C14.4991 10.1001 14.5387 10.5022 14.4616 10.8902C14.3844 11.2781 14.1939 11.6345 13.9142 11.9142C13.6345 12.1939 13.2781 12.3844 12.8902 12.4616C12.5022 12.5387 12.1001 12.4991 11.7346 12.3478C11.3692 12.1964 11.0568 11.94 10.8371 11.6111C10.6173 11.2822 10.5 10.8956 10.5 10.5C10.5 9.96957 10.7107 9.46086 11.0858 9.08579C11.4609 8.71071 11.9696 8.5 12.5 8.5Z" fill="#AAAAAA"/>
</svg>
