<svg width="25" height="24" viewBox="0 0 25 24" fill="none" xmlns="http://www.w3.org/2000/svg">
<path d="M12.5002 21.2301H12.2802C12.0767 21.1979 11.8881 21.1036 11.7402 20.9601L4.05023 13.2601C3.07082 12.2101 2.53738 10.8207 2.56236 9.38503C2.58735 7.94932 3.1688 6.5794 4.18415 5.56405C5.19951 4.54869 6.56943 3.96724 8.00514 3.94226C9.44085 3.91727 10.8302 4.45071 11.8802 5.43013L12.5002 6.00013L13.1002 5.40013C14.1416 4.36749 15.5487 3.78809 17.0152 3.78809C18.4818 3.78809 19.8889 4.36749 20.9302 5.40013C21.9677 6.43889 22.5505 7.84699 22.5505 9.31513C22.5505 10.7833 21.9677 12.1914 20.9302 13.2301L13.2302 20.9301C13.1353 21.027 13.0216 21.1036 12.8961 21.1552C12.7706 21.2068 12.6359 21.2323 12.5002 21.2301ZM7.94023 5.79013C7.24912 5.79897 6.57571 6.00994 6.00309 6.39701C5.43047 6.78407 4.98368 7.3303 4.71785 7.9683C4.45201 8.6063 4.37876 9.30817 4.50713 9.98731C4.6355 10.6665 4.95987 11.2932 5.44023 11.7901L12.4402 18.7901L19.4402 11.7901C20.1022 11.1265 20.4739 10.2274 20.4739 9.29013C20.4739 8.35281 20.1022 7.45375 19.4402 6.79013C19.113 6.45996 18.7236 6.19789 18.2945 6.01904C17.8654 5.84019 17.4051 5.74811 16.9402 5.74811C16.4754 5.74811 16.0151 5.84019 15.586 6.01904C15.1569 6.19789 14.7675 6.45996 14.4402 6.79013L13.1302 8.09013C12.9429 8.27638 12.6894 8.38092 12.4252 8.38092C12.161 8.38092 11.9076 8.27638 11.7202 8.09013L10.4402 6.83013C10.1128 6.50033 9.72332 6.23863 9.29423 6.06013C8.86515 5.88163 8.40497 5.78986 7.94023 5.79013Z" fill="#AAAAAA"/>
</svg>
