<svg width="25" height="25" viewBox="0 0 25 25" fill="none" xmlns="http://www.w3.org/2000/svg">
<path d="M14.5186 13.799C16.5729 13.799 18.2382 12.1337 18.2382 10.0794C18.2382 8.02512 16.5729 6.3598 14.5186 6.3598C12.4643 6.3598 10.799 8.02512 10.799 10.0794C10.799 12.1337 12.4643 13.799 14.5186 13.799ZM18.866 13.5767L23.2281 17.9388C23.5901 18.3008 23.5918 18.8862 23.2261 19.2519C22.863 19.615 22.2745 19.6153 21.913 19.2538L17.4726 14.8135C16.616 15.3492 15.6034 15.6588 14.5186 15.6588C11.4372 15.6588 8.93919 13.1608 8.93919 10.0794C8.93919 6.99798 11.4372 4.5 14.5186 4.5C17.6 4.5 20.098 6.99798 20.098 10.0794C20.098 11.4036 19.6367 12.62 18.866 13.5767ZM1.5 7.75465C1.5 7.24108 1.81596 6.82475 2.19535 6.82475H6.38404C6.76807 6.82475 7.07939 7.2375 7.07939 7.75465C7.07939 8.26821 6.76343 8.68454 6.38404 8.68454H2.19535C1.81132 8.68454 1.5 8.2718 1.5 7.75465ZM1.5 13.334C1.5 12.8205 1.81596 12.4041 2.19535 12.4041H6.38404C6.76807 12.4041 7.07939 12.8169 7.07939 13.334C7.07939 13.8476 6.76343 14.2639 6.38404 14.2639H2.19535C1.81132 14.2639 1.5 13.8512 1.5 13.334ZM1.5 18.9134C1.5 18.3999 1.8059 17.9835 2.19655 17.9835H15.4494C15.834 17.9835 16.1459 18.3963 16.1459 18.9134C16.1459 19.427 15.84 19.8433 15.4494 19.8433H2.19655C1.81186 19.8433 1.5 19.4306 1.5 18.9134Z" fill="#AAAAAA"/>
</svg>
