<svg width="23" height="25" viewBox="0 0 23 25" fill="none" xmlns="http://www.w3.org/2000/svg">
<path d="M4.29342 6.53551L1.05078 3.29287L2.46499 1.87866L5.70763 5.1213H20.9494C21.5017 5.1213 21.9494 5.56902 21.9494 6.1213C21.9494 6.21862 21.9352 6.31543 21.9073 6.40865L19.5073 14.4087C19.3804 14.8317 18.991 15.1214 18.5494 15.1214H6.29342V17.1214H17.2935V19.1214H5.29342C4.74113 19.1214 4.29342 18.6736 4.29342 18.1214V6.53551ZM6.29342 7.1213V13.1214H17.8054L19.6054 7.1213H6.29342ZM5.79342 23.1214C4.96499 23.1214 4.29342 22.4498 4.29342 21.6214C4.29342 20.7929 4.96499 20.1214 5.79342 20.1214C6.62185 20.1214 7.29342 20.7929 7.29342 21.6214C7.29342 22.4498 6.62185 23.1214 5.79342 23.1214ZM17.7935 23.1214C16.965 23.1214 16.2935 22.4498 16.2935 21.6214C16.2935 20.7929 16.965 20.1214 17.7935 20.1214C18.6219 20.1214 19.2935 20.7929 19.2935 21.6214C19.2935 22.4498 18.6219 23.1214 17.7935 23.1214Z" fill="#F7F7F7"/>
</svg>
