<svg width="24" height="24" viewBox="0 0 24 24" fill="none" xmlns="http://www.w3.org/2000/svg">
<path d="M9.5 3H4.5C4.10218 3 3.72064 3.15804 3.43934 3.43934C3.15804 3.72064 3 4.10218 3 4.5V9.5C3 9.89782 3.15804 10.2794 3.43934 10.5607C3.72064 10.842 4.10218 11 4.5 11H9.5C9.89782 11 10.2794 10.842 10.5607 10.5607C10.842 10.2794 11 9.89782 11 9.5V4.5C11 4.10218 10.842 3.72064 10.5607 3.43934C10.2794 3.15804 9.89782 3 9.5 3ZM9 9H5V5H9V9Z" fill="#4675FF"/>
<path d="M19.5 3H14.5C14.1022 3 13.7206 3.15804 13.4393 3.43934C13.158 3.72064 13 4.10218 13 4.5V9.5C13 9.89782 13.158 10.2794 13.4393 10.5607C13.7206 10.842 14.1022 11 14.5 11H19.5C19.8978 11 20.2794 10.842 20.5607 10.5607C20.842 10.2794 21 9.89782 21 9.5V4.5C21 4.10218 20.842 3.72064 20.5607 3.43934C20.2794 3.15804 19.8978 3 19.5 3ZM19 9H15V5H19V9Z" fill="#4675FF"/>
<path d="M9.5 13H4.5C4.10218 13 3.72064 13.158 3.43934 13.4393C3.15804 13.7206 3 14.1022 3 14.5V19.5C3 19.8978 3.15804 20.2794 3.43934 20.5607C3.72064 20.842 4.10218 21 4.5 21H9.5C9.89782 21 10.2794 20.842 10.5607 20.5607C10.842 20.2794 11 19.8978 11 19.5V14.5C11 14.1022 10.842 13.7206 10.5607 13.4393C10.2794 13.158 9.89782 13 9.5 13ZM9 19H5V15H9V19Z" fill="#4675FF"/>
<path d="M19.5 13H14.5C14.1022 13 13.7206 13.158 13.4393 13.4393C13.158 13.7206 13 14.1022 13 14.5V19.5C13 19.8978 13.158 20.2794 13.4393 20.5607C13.7206 20.842 14.1022 21 14.5 21H19.5C19.8978 21 20.2794 20.842 20.5607 20.5607C20.842 20.2794 21 19.8978 21 19.5V14.5C21 14.1022 20.842 13.7206 20.5607 13.4393C20.2794 13.158 19.8978 13 19.5 13ZM19 19H15V15H19V19Z" fill="#4675FF"/>
</svg>
